HIERARCHY
ROOT Hips
{
	OFFSET 0.000000 0.000000 0.000000
	CHANNELS 6 Xposition Yposition Zposition Yrotation Xrotation Zrotation
	JOINT Chest
	{
		OFFSET 0.000000 -0.009282 11.569106
		CHANNELS 6 Xposition Yposition Zposition Yrotation Xrotation Zrotation
		JOINT Chest2
		{
			OFFSET -0.000000 0.016863 9.269641
			CHANNELS 6 Xposition Yposition Zposition Yrotation Xrotation Zrotation
			JOINT Chest3
			{
				OFFSET -0.000000 0.000000 8.374491
				CHANNELS 6 Xposition Yposition Zposition Yrotation Xrotation Zrotation
				JOINT Chest4
				{
					OFFSET -0.000000 0.000000 8.374493
					CHANNELS 6 Xposition Yposition Zposition Yrotation Xrotation Zrotation
					JOINT Neck
					{
						OFFSET -0.000000 0.000001 12.152554
						CHANNELS 6 Xposition Yposition Zposition Yrotation Xrotation Zrotation
						JOINT Head
						{
							OFFSET -0.000000 0.040100 7.802319
							CHANNELS 6 Xposition Yposition Zposition Yrotation Xrotation Zrotation
							End Site
							{
								OFFSET -0.000000 0.020946 14.853096
							}
						}
					}
					JOINT RightCollar
					{
						OFFSET 2.894404 0.000001 6.791374
						CHANNELS 6 Xposition Yposition Zposition Yrotation Xrotation Zrotation
						JOINT RightShoulder
						{
							OFFSET 13.574684 0.000001 0.000000
							CHANNELS 6 Xposition Yposition Zposition Yrotation Xrotation Zrotation
							JOINT RightElbow
							{
								OFFSET 23.923903 0.000002 0.000000
								CHANNELS 6 Xposition Yposition Zposition Yrotation Xrotation Zrotation
								JOINT RightWrist
								{
									OFFSET 19.846718 0.012767 0.000000
									CHANNELS 6 Xposition Yposition Zposition Yrotation Xrotation Zrotation
									End Site
									{
										OFFSET 14.973145 0.000001 0.000000
									}
								}
							}
						}
					}
					JOINT LeftCollar
					{
						OFFSET -2.894404 0.000000 6.791374
						CHANNELS 6 Xposition Yposition Zposition Yrotation Xrotation Zrotation
						JOINT LeftShoulder
						{
							OFFSET -13.574684 -0.000001 0.000000
							CHANNELS 6 Xposition Yposition Zposition Yrotation Xrotation Zrotation
							JOINT LeftElbow
							{
								OFFSET -23.923903 -0.000002 0.000000
								CHANNELS 6 Xposition Yposition Zposition Yrotation Xrotation Zrotation
								JOINT LeftWrist
								{
									OFFSET -19.846718 0.012763 0.000000
									CHANNELS 6 Xposition Yposition Zposition Yrotation Xrotation Zrotation
									End Site
									{
										OFFSET -14.973145 -0.000001 0.000000
									}
								}
							}
						}
					}
				}
			}
		}
	}
	JOINT RightHip
	{
		OFFSET 9.469263 0.004643 0.045487
		CHANNELS 6 Xposition Yposition Zposition Yrotation Xrotation Zrotation
		JOINT RightKnee
		{
			OFFSET 0.000000 0.002666 -40.478676
			CHANNELS 6 Xposition Yposition Zposition Yrotation Xrotation Zrotation
			JOINT RightAnkle
			{
				OFFSET 0.000000 0.049110 -35.224068
				CHANNELS 6 Xposition Yposition Zposition Yrotation Xrotation Zrotation
				JOINT RightToe
				{
					OFFSET -0.000001 12.539530 -6.151390
					CHANNELS 6 Xposition Yposition Zposition Yrotation Xrotation Zrotation
					End Site
					{
						OFFSET -0.000001 5.044996 -1.291870
					}
				}
			}
		}
	}
	JOINT LeftHip
	{
		OFFSET -9.469263 0.004641 0.045487
		CHANNELS 6 Xposition Yposition Zposition Yrotation Xrotation Zrotation
		JOINT LeftKnee
		{
			OFFSET 0.000000 0.002666 -40.478676
			CHANNELS 6 Xposition Yposition Zposition Yrotation Xrotation Zrotation
			JOINT LeftAnkle
			{
				OFFSET 0.000000 0.049110 -35.224068
				CHANNELS 6 Xposition Yposition Zposition Yrotation Xrotation Zrotation
				JOINT LeftToe
				{
					OFFSET -0.000001 12.539530 -6.151390
					CHANNELS 6 Xposition Yposition Zposition Yrotation Xrotation Zrotation
					End Site
					{
						OFFSET -0.000001 5.044996 -1.291870
					}
				}
			}
		}
	}
}
MOTION
Frames: 8
Frame Time: 0.016667
10.560289 6.382424 83.099312 -8.160537 -3.909497 -111.656347 -0.000001 -0.009281 11.569098 0.368686 -2.590088 -1.432473 0.000000 0.016863 9.269632 0.128466 -1.155650 -0.662493 0.000000 -0.000000 8.374499 0.128467 -1.155649 -0.662494 0.000000 0.000001 8.374500 0.095094 -0.866877 -0.496612 -0.000000 -0.000001 12.152561 0.901067 -17.520369 -1.604589 0.000000 0.040102 7.802336 1.115289 3.650114 -2.654178 2.894404 -0.000001 6.791372 0.336595 0.916352 3.385638 13.574686 0.000001 0.000001 50.286233 -4.457260 53.101511 23.923893 -0.000008 0.000006 40.335665 -36.641656 60.496461 19.846722 0.012780 -0.000008 39.009297 5.913224 -6.604489 -2.894405 -0.000001 6.791376 -6.850136 -1.637499 -8.076310 -13.574683 -0.000003 0.000008 -48.453324 -4.176935 -56.800553 -23.923899 -0.000006 -0.000007 -12.606586 -26.401669 -50.645279 -19.846706 0.012760 0.000004 50.645398 21.930585 -14.457340 9.469262 0.004644 0.045478 -0.028133 -10.075187 -2.321256 -0.000045 0.002654 -40.478912 0.582024 -5.211180 0.922131 0.000058 0.049091 -35.223774 0.051926 6.086572 -1.233280 -0.000002 12.539525 -6.151388 0.218613 0.132600 0.031762 -9.469264 0.004643 0.045478 0.026173 -10.679860 -0.203310 -0.000117 0.002661 -40.478817 0.469176 -2.815157 2.485458 0.000068 0.049100 -35.223846 -0.800033 4.740371 -1.548668 0.000001 12.539533 -6.151391 0.125318 0.116878 -0.024346 
10.567182 6.335309 83.101181 -8.149043 -3.929753 -111.942354 0.000001 -0.009281 11.569104 0.463071 -2.446479 -1.622673 0.000001 0.016864 9.269644 0.169790 -1.085288 -0.728140 -0.000002 0.000001 8.374490 0.169789 -1.085289 -0.728135 -0.000000 0.000001 8.374484 0.126045 -0.814170 -0.545785 0.000001 0.000001 12.152552 0.623778 -17.633417 -1.311328 -0.000000 0.040100 7.802304 0.705039 3.438138 -2.207104 2.894405 0.000000 6.791383 0.370648 0.697888 3.809012 13.574686 0.000002 0.000004 51.931373 -6.451264 53.318892 23.923903 0.000010 -0.000004 42.888551 -33.118628 65.462200 19.846725 0.012777 0.000002 33.970779 11.039499 4.244131 -2.894403 -0.000000 6.791373 -6.722211 -2.181826 -7.553504 -13.574685 -0.000003 -0.000007 -47.198304 -4.287110 -55.681522 -23.923899 0.000004 0.000018 -11.834447 -27.539806 -48.874037 -19.846714 0.012758 0.000008 36.600436 7.854076 -7.904506 9.469264 0.004643 0.045483 0.001465 -10.215170 -2.680394 -0.000056 0.002657 -40.478901 0.463912 -4.880332 1.138185 0.000039 0.049094 -35.223801 0.209768 5.931268 -0.797546 -0.000003 12.539529 -6.151388 0.098795 0.084582 0.026623 -9.469262 0.004641 0.045481 0.025699 -10.761759 -0.369667 -0.000128 0.002660 -40.478809 0.445985 -2.751142 2.725503 0.000060 0.049100 -35.223854 -0.843751 4.713729 -1.397631 -0.000000 12.539533 -6.151380 0.123915 0.147880 -0.029144 
10.582732 6.264323 83.084557 -8.106903 -3.979267 -112.165100 -0.000000 -0.009282 11.569111 0.415319 -2.385876 -1.654394 0.000001 0.016866 9.269641 0.163523 -1.050390 -0.734444 0.000001 0.000000 8.374475 0.163523 -1.050389 -0.734445 0.000001 0.000000 8.374492 0.121377 -0.787990 -0.550537 0.000000 0.000002 12.152546 0.572258 -17.619848 -1.163537 0.000000 0.040101 7.802314 0.660070 3.463552 -1.952022 2.894404 0.000002 6.791377 0.624437 0.738075 3.716109 13.574682 0.000002 0.000008 55.012058 -8.531233 53.502070 23.923897 0.000006 -0.000001 45.807039 -29.358352 67.969371 19.846716 0.012749 0.000007 25.386676 17.570201 15.580063 -2.894404 0.000001 6.791370 -6.278257 -3.512340 -7.477697 -13.574685 -0.000004 0.000002 -47.682548 -2.882761 -55.738681 -23.923897 0.000015 0.000013 -18.153902 -27.017481 -48.256273 -19.846716 0.012760 -0.000007 14.535985 -15.623764 5.465181 9.469263 0.004644 0.045483 0.107999 -10.349658 -2.717292 -0.000048 0.002658 -40.478886 0.361554 -4.560112 0.997555 0.000021 0.049093 -35.223797 0.351666 5.818734 -0.411796 -0.000001 12.539528 -6.151387 0.006634 0.024183 0.020672 -9.469264 0.004641 0.045487 0.116662 -10.856787 -0.428530 -0.000130 0.002661 -40.478798 0.392405 -2.649221 2.743831 0.000053 0.049098 -35.223854 -0.863916 4.786706 -1.206495 -0.000000 12.539536 -6.151390 0.104701 0.077137 -0.030738 
10.584483 6.206234 83.058960 -8.027999 -4.078746 -112.327467 -0.000001 -0.009282 11.569098 0.195680 -2.418117 -1.228843 -0.000000 0.016863 9.269642 0.080297 -1.062288 -0.544555 -0.000001 0.000002 8.374492 0.080297 -1.062288 -0.544553 -0.000001 0.000000 8.374486 0.059275 -0.796789 -0.408266 -0.000002 0.000003 12.152560 0.991138 -17.501363 -1.429161 -0.000001 0.040099 7.802312 1.341230 3.687143 -2.299578 2.894403 0.000001 6.791383 1.216956 0.448589 3.120133 13.574684 -0.000000 0.000008 57.498882 -9.186771 54.179055 23.923904 0.000004 -0.000005 48.480758 -25.674022 68.652875 19.846718 0.012769 -0.000003 15.474340 28.613063 27.954361 -2.894405 0.000000 6.791383 -5.918495 -3.537404 -8.267778 -13.574680 -0.000001 0.000005 -49.244373 -1.952293 -55.577540 -23.923895 0.000007 0.000017 -25.102105 -27.806407 -48.105873 -19.846720 0.012756 0.000008 -18.131792 -23.337529 28.575649 9.469261 0.004643 0.045486 0.286240 -10.424556 -2.543561 -0.000035 0.002659 -40.478870 0.264202 -4.318079 0.727834 0.000010 0.049094 -35.223797 0.477173 5.727540 -0.172402 -0.000002 12.539528 -6.151388 -0.055380 -0.018355 0.017954 -9.469264 0.004642 0.045490 0.262813 -10.910564 -0.460166 -0.000126 0.002659 -40.478802 0.348826 -2.567021 2.690578 0.000045 0.049100 -35.223854 -0.825061 4.877485 -1.023988 0.000001 12.539531 -6.151392 0.049952 -0.007860 -0.031875 
10.587174 6.183079 83.041283 -7.913376 -4.163194 -112.399854 0.000000 -0.009283 11.569099 -0.021320 -2.383041 -0.637877 -0.000000 0.016863 9.269634 -0.001179 -1.047609 -0.280578 -0.000000 0.000001 8.374480 -0.001179 -1.047609 -0.280581 -0.000001 0.000001 8.374492 -0.001365 -0.785706 -0.210427 -0.000001 0.000000 12.152545 1.573576 -17.447252 -1.915156 0.000000 0.040103 7.802329 2.249653 3.793610 -2.997432 2.894404 -0.000001 6.791376 1.668494 0.736271 2.122320 13.574684 0.000002 0.000001 58.706890 -9.768887 54.590792 23.923903 0.000023 -0.000015 43.088621 -22.077919 70.141378 19.846716 0.012769 0.000002 -4.341771 40.042701 39.272874 -2.894405 -0.000001 6.791373 -5.522535 -3.431849 -9.379357 -13.574681 -0.000000 0.000004 -51.391586 -1.302554 -55.707962 -23.923897 0.000002 -0.000010 -28.141486 -32.565423 -48.997489 -19.846725 0.012757 -0.000002 -40.589786 -6.046008 40.195199 9.469263 0.004643 0.045478 0.446435 -10.462523 -2.484858 -0.000029 0.002659 -40.478867 0.190219 -4.074575 0.605248 0.000005 0.049096 -35.223812 0.596288 5.623483 -0.056640 -0.000002 12.539529 -6.151379 -0.102947 -0.045506 0.021188 -9.469264 0.004642 0.045477 0.368838 -10.859831 -0.559017 -0.000123 0.002661 -40.478806 0.348632 -2.574309 2.669141 0.000038 0.049100 -35.223839 -0.727463 4.991650 -0.873056 0.000001 12.539532 -6.151398 -0.033988 -0.083371 -0.035892 
10.604683 6.194469 83.044945 -7.791080 -4.182267 -112.353374 -0.000001 -0.009284 11.569099 0.012422 -2.370917 -0.476876 0.000001 0.016865 9.269642 0.027468 -1.042904 -0.203257 -0.000000 -0.000000 8.374475 0.027469 -1.042904 -0.203257 0.000001 0.000001 8.374492 0.020255 -0.782188 -0.152392 0.000000 -0.000000 12.152562 1.753812 -17.426220 -2.140987 0.000001 0.040100 7.802318 2.504810 3.835023 -3.352602 2.894404 0.000001 6.791371 1.552237 1.069457 2.103131 13.574683 -0.000001 -0.000007 58.621068 -9.370655 55.035759 23.923897 0.000009 -0.000003 28.853837 -17.097721 67.329758 19.846712 0.012765 0.000007 -31.561816 51.319200 36.360355 -2.894403 0.000000 6.791369 -5.498425 -3.352376 -9.779693 -13.574686 0.000002 0.000009 -52.106308 -0.609085 -55.151158 -23.923891 0.000007 -0.000019 -30.374555 -37.310328 -51.997964 -19.846718 0.012756 0.000000 -43.710643 8.728338 33.641974 9.469263 0.004642 0.045476 0.513892 -10.489863 -2.679994 -0.000031 0.002661 -40.478855 0.157996 -3.822308 0.664503 0.000002 0.049097 -35.223820 0.734887 5.519783 0.024563 -0.000001 12.539526 -6.151395 -0.154742 -0.060594 0.026661 -9.469263 0.004640 0.045474 0.401255 -10.738487 -0.679967 -0.000121 0.002660 -40.478790 0.393147 -2.624526 2.606097 0.000033 0.049098 -35.223831 -0.642366 5.084472 -0.761115 -0.000000 12.539533 -6.151400 -0.096862 -0.130458 -0.040556 
10.644881 6.211665 83.069138 -7.775259 -4.205607 -112.165189 -0.000000 -0.009284 11.569111 0.035244 -2.288028 -0.427411 0.000000 0.016864 9.269651 0.036091 -1.013659 -0.177596 -0.000000 -0.000001 8.374473 0.036091 -1.013659 -0.177598 -0.000001 -0.000001 8.374492 0.026774 -0.760254 -0.133135 0.000001 0.000001 12.152545 1.833203 -17.523016 -2.304877 -0.000000 0.040101 7.802310 2.596691 3.656503 -3.628374 2.894404 0.000002 6.791362 1.328269 1.532039 1.920081 13.574682 0.000001 0.000005 59.046084 -7.131582 55.119709 23.923903 0.000018 -0.000005 18.705877 -17.518503 59.642755 19.846716 0.012760 -0.000010 -50.205790 49.236634 24.542972 -2.894405 0.000001 6.791369 -5.406697 -3.316143 -9.954272 -13.574685 -0.000000 0.000000 -50.069313 -0.853171 -54.063502 -23.923906 -0.000006 0.000004 -34.107974 -37.111522 -57.708234 -19.846722 0.012752 0.000009 -46.769731 15.076606 17.836107 9.469263 0.004642 0.045495 0.537044 -10.639729 -2.996164 -0.000033 0.002661 -40.478836 0.174546 -3.582303 0.710582 -0.000002 0.049095 -35.223820 0.886979 5.393203 0.120085 -0.000003 12.539527 -6.151391 -0.217728 -0.018547 0.026510 -9.469263 0.004641 0.045495 0.406420 -10.723469 -0.772345 -0.000117 0.002661 -40.478794 0.456563 -2.628610 2.474280 0.000031 0.049100 -35.223831 -0.610990 5.026842 -0.751403 0.000003 12.539536 -6.151403 -0.104348 -0.068862 -0.037097 
10.713150 6.230724 83.094498 -7.928005 -4.258615 -111.856143 -0.000000 -0.009282 11.569113 -0.096668 -2.246564 -0.311551 0.000000 0.016859 9.269640 -0.024381 -0.999964 -0.126576 -0.000000 0.000002 8.374488 -0.024381 -0.999965 -0.126574 -0.000000 0.000001 8.374493 -0.018493 -0.749968 -0.094968 -0.000002 0.000004 12.152555 2.091405 -17.666597 -2.530787 0.000001 0.040101 7.802307 2.998377 3.393812 -3.957882 2.894402 0.000002 6.791375 1.318036 2.175163 1.546434 13.574681 0.000001 -0.000014 58.265243 -5.727737 53.187889 23.923904 0.000021 -0.000008 18.494117 -19.109302 51.638716 19.846710 0.012760 0.000004 -45.213783 36.490426 23.490967 -2.894406 0.000000 6.791373 -5.330711 -3.240039 -10.293188 -13.574686 -0.000002 -0.000006 -48.955688 -2.398584 -52.850757 -23.923895 -0.000007 -0.000000 -39.018033 -34.308979 -61.770885 -19.846720 0.012760 0.000003 -46.526378 20.195367 5.579453 9.469263 0.004642 0.045494 0.540415 -10.972246 -3.258367 -0.000029 0.002661 -40.478836 0.194515 -3.375041 0.608804 -0.000006 0.049098 -35.223820 1.030472 5.325027 0.201020 -0.000002 12.539527 -6.151387 -0.251172 0.014811 0.028371 -9.469263 0.004640 0.045492 0.417052 -10.912192 -0.840169 -0.000107 0.002662 -40.478790 0.490635 -2.564436 2.300079 0.000033 0.049102 -35.223839 -0.617782 4.949981 -0.808946 0.000001 12.539534 -6.151398 -0.071633 -0.021556 -0.030290 
